<mxfile host="app.diagrams.net" modified="2024-07-15T20:01:20.065Z" agent="Mozilla/5.0 (Windows NT 10.0; Win64; x64) AppleWebKit/537.36 (KHTML, like Gecko) Chrome/124.0.0.0 YaBrowser/24.6.0.0 Safari/537.36" version="24.6.5" etag="fkgY3vwF8d0Q9EUgP-uH" type="github">
  <diagram name="Страница — 1" id="yJe5lNkrbC9RDfhi_xBH">
    <mxGraphModel>
      <root>
        <mxCell id="0" />
        <mxCell id="1" parent="0" />
      </root>
    </mxGraphModel>
  </diagram>
</mxfile>
